<?xml version="1.0" standalone="no"?>
<!DOCTYPE svg PUBLIC "-//W3C//DTD SVG 20010904//EN"
 "http://www.w3.org/TR/2001/REC-SVG-20010904/DTD/svg10.dtd">
<svg version="1.0" xmlns="http://www.w3.org/2000/svg"
 width="512.000000pt" height="512.000000pt" viewBox="0 0 512.000000 512.000000"
 preserveAspectRatio="xMidYMid meet">
<metadata>
Created by potrace 1.11, written by Peter Selinger 2001-2013
</metadata>
<g transform="translate(0.000000,512.000000) scale(0.100000,-0.100000)"
fill="#000000" stroke="none">
<path d="M2250 4520 c0 -5 5 -10 11 -10 5 0 7 5 4 10 -3 6 -8 10 -11 10 -2 0
-4 -4 -4 -10z"/>
<path d="M2135 4500 c3 -5 8 -10 11 -10 2 0 4 5 4 10 0 6 -5 10 -11 10 -5 0
-7 -4 -4 -10z"/>
<path d="M2193 4485 c0 -8 4 -15 9 -15 4 0 8 4 8 9 0 6 -4 12 -8 15 -5 3 -9
-1 -9 -9z"/>
<path d="M2244 4483 c4 -4 16 -8 28 -10 28 -4 18 6 -12 12 -12 2 -20 1 -16 -2z"/>
<path d="M1999 4463 c-1 -5 -1 -12 0 -17 1 -5 -4 -6 -12 -3 -7 3 -14 -1 -14
-9 0 -19 30 -1 33 20 1 9 0 16 -2 16 -2 0 -5 -3 -5 -7z"/>
<path d="M2027 4457 c4 -6 8 -18 9 -25 4 -25 12 -23 12 2 0 14 -7 27 -15 30
-9 4 -11 2 -6 -7z"/>
<path d="M2357 4448 c19 -21 31 -25 14 -5 -6 8 -9 16 -6 19 3 2 -2 5 -10 5
-13 0 -13 -3 2 -19z"/>
<path d="M2178 4438 c4 -16 2 -19 -8 -13 -9 5 -11 4 -6 -4 4 -6 12 -9 17 -6
12 8 12 32 0 39 -5 4 -7 -4 -3 -16z"/>
<path d="M2255 4450 c6 -10 1 -12 -18 -8 -15 3 -24 1 -21 -3 7 -12 41 -11 49
0 3 5 0 13 -6 17 -8 5 -9 3 -4 -6z"/>
<path d="M2293 4445 c-3 -9 -3 -18 -1 -21 3 -3 8 4 11 16 6 23 -1 27 -10 5z"/>
<path d="M2316 4443 c-4 -9 -4 -14 0 -10 4 4 14 1 23 -6 14 -11 15 -10 1 8 -8
11 -15 21 -16 23 -1 2 -5 -5 -8 -15z"/>
<path d="M2108 4432 c9 -10 19 -17 21 -16 6 5 -20 34 -30 34 -5 0 -1 -8 9 -18z"/>
<path d="M2070 4431 c12 -8 10 -14 -12 -34 -23 -21 -24 -25 -9 -35 10 -6 11
-11 4 -11 -7 -1 -21 9 -33 21 -11 12 -23 18 -27 15 -3 -4 -1 -7 5 -7 7 0 12
-5 12 -11 0 -5 -5 -7 -10 -4 -6 3 -13 -1 -16 -9 -3 -9 -11 -13 -17 -9 -6 4 -7
1 -2 -7 6 -10 11 -9 21 4 7 10 15 13 18 7 4 -6 14 -7 24 -4 14 6 15 4 5 -8 -7
-9 -9 -20 -3 -29 6 -9 4 -20 -3 -30 -10 -13 -10 -13 5 -2 14 11 18 10 27 -5 6
-10 11 -13 11 -6 0 6 -4 15 -10 18 -5 3 -10 11 -10 17 0 6 9 3 20 -7 15 -14
17 -22 9 -39 -10 -20 -9 -20 5 -2 9 10 13 23 9 29 -3 5 0 7 8 5 8 -3 13 -12
11 -19 -1 -8 4 -6 13 5 8 10 12 24 8 29 -4 6 0 8 11 4 10 -4 21 -7 24 -7 4 0
0 -5 -8 -11 -13 -9 -13 -10 0 -6 8 2 15 9 15 15 0 25 23 35 44 20 12 -8 18
-17 15 -20 -3 -3 -1 -9 4 -12 6 -3 9 1 8 10 -1 8 -7 19 -14 23 -8 4 -8 11 -1
21 8 11 12 12 16 3 2 -7 9 -13 15 -13 6 0 6 6 -2 15 -10 12 -10 18 0 30 8 9 8
15 2 15 -6 0 -13 -6 -15 -12 -4 -10 -8 -9 -16 2 -8 12 -6 16 12 22 l22 6 -22
1 c-12 1 -25 -3 -28 -9 -3 -5 -11 -10 -18 -10 -8 0 -8 3 1 12 7 7 12 16 12 22
0 5 -6 1 -14 -9 -8 -11 -12 -23 -10 -27 2 -4 0 -9 -6 -13 -5 -3 -10 -1 -10 5
0 6 -5 8 -12 4 -8 -5 -9 -2 -5 9 3 10 2 17 -3 17 -6 0 -10 -8 -10 -17 -1 -15
-4 -14 -20 6 -11 13 -20 18 -20 12 0 -5 10 -20 23 -32 17 -17 18 -21 5 -16
-11 4 -18 2 -18 -5 0 -6 -3 -8 -7 -4 -7 7 -13 27 -16 60 -1 11 -9 21 -17 23
-13 4 -13 3 0 -6z m14 -62 c-5 -8 17 -26 31 -24 18 1 35 16 30 26 -3 5 1 6 9
3 19 -7 21 -21 4 -27 -7 -3 -3 -4 8 -4 13 1 20 6 17 13 -2 7 4 17 15 23 16 8
21 7 26 -4 7 -20 -3 -47 -16 -39 -5 3 -18 -2 -28 -11 -19 -17 -46 -12 -34 7 4
6 1 9 -7 6 -8 -3 -13 -15 -13 -26 1 -12 -3 -22 -7 -22 -5 0 -9 5 -9 11 0 8 -4
8 -14 0 -11 -10 -17 -7 -30 11 -9 12 -16 17 -16 10 0 -7 -5 -10 -10 -7 -6 4
-1 15 12 26 17 15 19 22 10 26 -10 4 -10 8 -1 19 10 12 14 12 20 2 4 -6 6 -15
3 -19z"/>
<path d="M2067 4344 c-3 -4 -2 -15 4 -26 8 -14 14 -17 23 -9 7 6 15 9 18 6 2
-3 5 2 5 10 0 8 -4 12 -8 9 -4 -2 -10 0 -14 6 -7 11 -19 13 -28 4z m28 -13 c3
-5 0 -13 -6 -17 -7 -4 -9 -3 -5 4 3 5 0 13 -6 15 -9 4 -10 6 -1 6 6 1 14 -3
18 -8z"/>
<path d="M2160 4330 c-9 -6 -10 -10 -3 -10 6 0 15 5 18 10 8 12 4 12 -15 0z"/>
<path d="M2000 4419 c-13 -9 -12 -10 3 -5 11 3 17 0 17 -9 0 -8 5 -15 10 -15
7 0 7 6 0 20 -12 23 -11 23 -30 9z"/>
<path d="M1960 4395 c-7 -8 -17 -12 -23 -8 -6 3 -7 1 -3 -5 5 -9 12 -8 26 1
11 6 20 15 20 19 0 12 -6 10 -20 -7z"/>
<path d="M2275 4400 c3 -5 8 -10 11 -10 2 0 4 5 4 10 0 6 -5 10 -11 10 -5 0
-7 -4 -4 -10z"/>
<path d="M2336 4402 c-3 -5 1 -9 9 -9 8 0 12 4 9 9 -3 4 -7 8 -9 8 -2 0 -6 -4
-9 -8z"/>
<path d="M2275 4369 c-4 -6 -5 -12 -2 -15 2 -3 7 2 10 11 7 17 1 20 -8 4z"/>
<path d="M2335 4341 c-3 -5 -2 -12 3 -15 5 -3 9 1 9 9 0 17 -3 19 -12 6z"/>
<path d="M1993 4315 c0 -8 6 -16 13 -19 7 -3 10 2 7 15 -6 22 -20 26 -20 4z"/>
<path d="M2275 4300 c6 -30 16 -40 12 -12 -2 12 -6 24 -10 28 -3 4 -4 -4 -2
-16z"/>
<path d="M2190 4301 c0 -5 8 -15 18 -22 15 -12 16 -12 5 2 -7 9 -10 19 -6 22
3 4 1 7 -5 7 -7 0 -12 -4 -12 -9z"/>
<path d="M2309 4298 c7 -9 9 -23 5 -30 -6 -10 -4 -11 7 0 11 10 10 15 -6 30
-17 15 -18 15 -6 0z"/>
<path d="M2430 4300 c0 -6 7 -10 15 -10 8 0 15 2 15 4 0 2 -7 6 -15 10 -8 3
-15 1 -15 -4z"/>
<path d="M2726 4298 c3 -5 10 -6 15 -3 13 9 11 12 -6 12 -8 0 -12 -4 -9 -9z"/>
<path d="M2367 4284 c-3 -3 -3 -13 0 -22 5 -11 3 -13 -7 -7 -9 6 -11 4 -6 -4
6 -9 12 -9 25 3 10 9 21 13 24 9 10 -9 8 -23 -2 -20 -5 1 -9 -1 -10 -5 -3 -25
1 -29 20 -23 14 5 19 3 15 -3 -7 -12 13 -62 26 -62 5 0 4 9 -1 19 -8 14 -7 22
6 32 14 12 15 11 9 -8 -4 -12 -2 -24 3 -28 7 -4 8 1 4 12 -6 16 -5 16 10 4 14
-11 18 -11 23 4 7 18 -13 38 -29 28 -4 -3 -7 2 -5 9 2 8 -13 28 -32 44 -19 16
-29 21 -21 11 8 -10 9 -17 3 -17 -6 0 -16 8 -21 18 -6 9 -11 11 -11 5 0 -7 -5
-13 -11 -13 -5 0 -7 5 -4 10 7 11 2 14 -8 4z m98 -46 c4 4 3 -3 -4 -15 -15
-30 -33 -40 -29 -17 2 12 -3 19 -14 19 -9 0 -20 4 -25 9 -4 5 -3 6 3 3 7 -4
18 0 25 9 12 14 14 14 24 0 7 -9 16 -12 20 -8z m35 -49 c0 -6 -4 -7 -10 -4 -5
3 -10 11 -10 16 0 6 5 7 10 4 6 -3 10 -11 10 -16z"/>
<path d="M2430 4241 c0 -6 4 -13 10 -16 6 -3 7 1 4 9 -7 18 -14 21 -14 7z"/>
<path d="M2511 4274 c0 -11 3 -14 6 -6 3 7 2 16 -1 19 -3 4 -6 -2 -5 -13z"/>
<path d="M2566 4281 c-19 -7 -19 -8 0 -13 13 -3 21 0 21 8 0 8 -1 14 -1 13 -1
0 -10 -4 -20 -8z"/>
<path d="M2690 4279 c0 -5 5 -7 10 -4 6 3 10 8 10 11 0 2 -4 4 -10 4 -5 0 -10
-5 -10 -11z"/>
<path d="M2464 4266 c11 -9 23 -16 28 -16 4 0 7 -6 6 -12 -2 -7 7 -14 20 -16
20 -3 21 -6 10 -20 -12 -15 -11 -16 4 -3 21 16 15 31 -13 31 -10 0 -18 3 -18
8 3 17 -2 35 -7 29 -4 -3 -16 -2 -28 4 -20 10 -20 10 -2 -5z"/>
<path d="M2035 4260 c-3 -5 -1 -10 4 -10 6 0 11 5 11 10 0 6 -2 10 -4 10 -3 0
-8 -4 -11 -10z"/>
<path d="M2135 4261 c-3 -5 0 -13 6 -17 8 -5 9 -3 4 6 -6 10 -3 12 13 8 12 -4
24 -3 26 1 3 4 -6 8 -19 9 -13 1 -27 -2 -30 -7z"/>
<path d="M2538 4258 c5 -5 16 -8 23 -6 8 3 3 7 -10 11 -17 4 -21 3 -13 -5z"/>
<path d="M2630 4259 c0 -5 5 -7 10 -4 6 3 10 8 10 11 0 2 -4 4 -10 4 -5 0 -10
-5 -10 -11z"/>
<path d="M2095 4239 c-4 -6 -4 -13 -1 -16 3 -4 6 0 6 7 0 9 5 8 19 -4 14 -13
21 -14 27 -5 4 8 3 10 -5 5 -6 -4 -14 0 -17 8 -7 18 -20 21 -29 5z"/>
<path d="M2575 4240 c-3 -5 -1 -10 4 -10 6 0 11 5 11 10 0 6 -2 10 -4 10 -3 0
-8 -4 -11 -10z"/>
<path d="M2687 4239 c7 -7 15 -10 18 -7 3 3 -2 9 -12 12 -14 6 -15 5 -6 -5z"/>
<path d="M2361 4196 c-9 -10 -9 -16 -1 -21 6 -4 10 -3 9 2 -3 20 2 27 11 13 6
-9 10 -10 10 -3 0 19 -17 24 -29 9z"/>
<path d="M2640 4200 c-9 -6 -10 -10 -3 -10 6 0 15 5 18 10 8 12 4 12 -15 0z"/>
<path d="M2130 4180 c0 -5 5 -10 11 -10 5 0 7 5 4 10 -3 6 -8 10 -11 10 -2 0
-4 -4 -4 -10z"/>
<path d="M2408 4174 c6 -12 9 -24 5 -27 -3 -4 6 -11 20 -16 14 -5 27 -15 30
-21 3 -6 4 -5 3 2 -1 7 -11 18 -22 23 -10 6 -20 17 -22 25 -2 8 -8 20 -14 25
-7 7 -7 3 0 -11z"/>
<path d="M2590 4175 c5 -7 6 -16 2 -21 -4 -5 -3 -6 2 -2 10 8 36 -14 29 -25
-3 -4 -16 -1 -29 8 -13 8 -24 11 -24 5 0 -5 5 -10 10 -10 6 0 10 -7 10 -15 0
-8 5 -15 11 -15 5 0 7 5 3 12 -4 7 -3 8 5 4 6 -4 9 -15 7 -24 -10 -32 24 -53
51 -31 7 7 11 19 8 26 -3 9 0 13 7 10 7 -2 12 -11 10 -18 -3 -11 -1 -12 10 -1
8 8 9 15 3 20 -16 11 -16 30 1 36 9 4 12 2 8 -5 -7 -11 12 -29 31 -29 6 1 2 5
-8 11 -17 10 -17 12 -1 36 l16 26 -23 -17 c-29 -20 -46 -21 -30 -2 9 11 9 16
0 22 -7 4 -9 3 -5 -4 3 -6 2 -13 -4 -17 -5 -3 -10 -1 -10 4 0 6 -4 11 -10 11
-5 0 -6 -8 -3 -17 6 -16 5 -17 -12 -3 -11 9 -16 10 -11 3 4 -7 3 -13 -1 -13
-11 0 -43 37 -37 42 2 3 -3 5 -11 5 -10 0 -12 -4 -5 -12z m90 -45 c-13 -9 -13
-10 0 -10 13 0 13 -1 0 -10 -8 -5 -15 -17 -15 -26 0 -10 -4 -19 -10 -20 -14
-5 -41 13 -32 22 3 4 13 1 22 -6 13 -11 14 -10 9 3 -3 8 -13 18 -22 22 -16 6
-16 7 -1 19 9 6 27 12 40 13 19 2 20 0 9 -7z"/>
<path d="M2641 4121 c-10 -6 -9 -10 3 -14 8 -3 18 -2 21 3 8 13 -9 20 -24 11z"/>
<path d="M2725 4180 c-3 -6 1 -7 9 -4 18 7 21 14 7 14 -6 0 -13 -4 -16 -10z"/>
<path d="M2534 4162 c3 -17 0 -22 -12 -20 -10 2 -21 8 -25 13 -5 6 -7 4 -5 -4
4 -15 44 -26 51 -13 3 4 0 16 -4 27 -9 18 -9 18 -5 -3z"/>
<path d="M2380 4155 c-11 -13 -10 -14 4 -9 9 3 16 10 16 15 0 13 -6 11 -20 -6z"/>
<path d="M2773 4153 c0 -9 4 -10 14 -2 7 6 13 12 13 14 0 1 -6 2 -13 2 -8 0
-14 -6 -14 -14z"/>
<path d="M3417 4153 c-3 -5 -8 -36 -11 -69 -3 -34 -8 -69 -12 -77 -7 -19 -63
-47 -96 -48 -14 0 -17 -3 -8 -6 79 -29 109 -67 117 -148 8 -82 22 -86 30 -8 8
82 26 111 85 138 46 22 49 25 25 25 -16 0 -44 7 -62 16 -27 13 -35 24 -44 62
-6 26 -12 64 -14 84 -2 40 -3 43 -10 31z"/>
<path d="M2470 4141 c0 -6 4 -13 10 -16 6 -3 7 1 4 9 -7 18 -14 21 -14 7z"/>
<path d="M2746 4133 c-6 -14 -5 -15 5 -6 7 7 10 15 7 18 -3 3 -9 -2 -12 -12z"/>
<path d="M3883 4102 c-1 -20 -4 -54 -7 -74 -3 -21 -8 -53 -10 -70 -11 -77 -27
-143 -42 -166 -9 -13 -36 -33 -61 -44 -45 -20 -71 -24 -173 -28 l-55 -2 48 -8
c168 -29 255 -104 272 -232 3 -26 9 -67 14 -92 8 -44 8 -44 -16 -33 -18 8 -20
13 -11 20 9 6 6 7 -10 4 -14 -3 -20 -1 -15 6 4 6 0 8 -10 4 -11 -4 -14 -2 -10
9 3 8 -1 14 -11 14 -9 0 -16 5 -16 12 0 6 -3 9 -6 5 -7 -6 -42 25 -38 34 2 3
-3 6 -11 6 -8 0 -12 -4 -9 -9 3 -4 0 -8 -5 -8 -6 0 -11 6 -11 14 0 10 -7 12
-22 8 -20 -5 -21 -3 -11 10 11 13 8 15 -17 13 -41 -2 -48 4 -58 60 -5 28 -11
40 -12 28 -1 -13 -4 -27 -5 -33 -1 -5 -3 -12 -4 -15 0 -3 -9 -1 -19 4 -13 7
-23 6 -33 -2 -7 -7 -10 -8 -6 -3 10 14 -26 36 -40 25 -7 -7 -14 -6 -19 2 -5 8
-3 10 7 4 8 -5 10 -4 6 0 -10 12 -39 16 -32 5 3 -5 0 -12 -6 -16 -7 -4 -9 -3
-6 3 4 6 0 16 -8 23 -12 10 -15 10 -15 0 0 -10 -3 -10 -15 0 -8 6 -18 9 -24 6
-5 -4 -17 1 -25 10 -12 11 -16 12 -16 2 0 -10 -3 -9 -10 2 -6 10 -21 14 -46
11 -22 -1 -34 1 -30 7 3 5 -3 12 -14 15 -22 6 -28 -8 -7 -16 7 -4 8 -6 1 -6
-6 -1 -17 5 -23 13 -7 8 -21 12 -33 8 -13 -3 -19 -1 -15 5 3 5 0 10 -8 10 -8
0 -15 -5 -15 -11 0 -5 -7 -1 -15 10 -10 13 -13 14 -10 3 4 -10 0 -16 -10 -16
-9 0 -14 6 -11 13 3 8 -3 10 -17 7 -18 -4 -20 -3 -7 7 13 10 12 11 -3 6 -10
-3 -21 -6 -23 -6 -3 0 -3 -4 0 -9 4 -5 -3 -7 -14 -4 -11 3 -17 9 -15 13 7 11
-36 7 -54 -5 -10 -6 -12 -4 -6 4 5 9 -3 12 -32 10 -21 -2 -44 0 -51 5 -7 4
-12 2 -12 -3 0 -6 -5 -11 -11 -11 -5 0 -8 4 -4 9 3 5 1 12 -4 15 -5 4 -12 -2
-14 -11 -3 -13 -5 -12 -6 6 l-1 23 -21 -23 -20 -24 11 24 c12 23 12 23 -10 8
-20 -14 -25 -14 -45 -1 -20 13 -25 13 -38 0 -11 -11 -17 -12 -19 -4 -5 15 -80
17 -90 3 -5 -6 -8 -5 -8 3 0 6 -5 12 -11 12 -5 0 -7 -5 -3 -11 5 -8 1 -8 -14
0 -25 13 -35 14 -28 3 3 -5 -1 -9 -9 -9 -8 0 -12 4 -9 9 3 4 -2 5 -10 2 -9 -3
-13 -11 -9 -18 4 -6 -1 -5 -10 3 -19 15 -23 26 -5 15 7 -4 8 -3 4 4 -4 6 -13
9 -21 6 -8 -4 -13 -10 -10 -14 3 -5 0 -12 -6 -16 -7 -4 -9 -3 -6 2 3 6 2 16
-4 24 -7 12 -9 12 -9 -4 0 -16 -2 -17 -17 -5 -11 10 -14 10 -9 2 10 -18 1 -16
-18 3 -15 14 -16 14 -16 -1 0 -9 -5 -13 -11 -9 -6 3 -15 0 -20 -7 -6 -10 -9
-11 -9 -1 0 6 -7 12 -16 12 -8 0 -12 -4 -9 -10 3 -5 2 -10 -4 -10 -5 0 -12 6
-15 13 -5 10 -7 10 -12 0 -3 -7 -10 -13 -15 -13 -6 0 -7 5 -3 11 4 7 1 10 -7
7 -8 -3 -22 -1 -32 4 -16 8 -17 7 -9 -9 9 -17 5 -18 -49 -17 -33 1 -62 -2 -65
-7 -3 -5 -10 -9 -15 -9 -6 0 -7 6 -3 13 5 8 2 8 -9 -2 -12 -9 -17 -10 -17 -2
0 7 -9 3 -20 -7 -21 -19 -46 -22 -68 -8 -6 4 -12 3 -12 -2 0 -6 -10 -8 -22 -4
-14 3 -19 2 -14 -6 5 -9 0 -9 -20 -2 -22 9 -25 8 -21 -4 4 -10 1 -13 -8 -9 -8
3 -12 10 -8 16 4 6 1 7 -6 3 -7 -5 -10 -15 -7 -25 5 -13 4 -13 -8 2 -8 10 -16
14 -17 8 -2 -5 -17 -10 -34 -12 -16 -2 -37 -9 -45 -15 -24 -20 -26 -20 -45 -4
-11 9 -16 10 -11 3 4 -7 4 -13 -1 -14 -41 -3 -68 -10 -76 -18 -15 -15 -30 -14
-21 2 4 6 -3 2 -15 -10 -23 -24 -37 -30 -25 -12 4 7 1 10 -7 7 -8 -3 -13 -10
-12 -16 1 -5 -7 -8 -19 -4 -16 4 -19 2 -13 -9 7 -11 5 -11 -10 1 -17 13 -18
13 -13 -1 5 -12 1 -16 -15 -15 -12 0 -22 -4 -22 -11 0 -6 -4 -15 -9 -20 -5 -4
-6 -3 -3 3 7 12 -21 29 -31 19 -3 -3 0 -5 7 -5 7 0 9 -5 6 -11 -4 -6 -14 -8
-22 -5 -11 5 -13 2 -9 -10 5 -14 4 -15 -9 -4 -13 11 -15 9 -15 -11 0 -15 -3
-19 -8 -12 -11 17 -37 -1 -26 -18 6 -12 5 -12 -8 -1 -13 10 -18 9 -29 -5 -12
-14 -12 -16 0 -8 10 5 12 4 7 -4 -6 -9 -11 -9 -24 1 -14 11 -15 10 -9 -6 6
-14 4 -17 -8 -12 -10 4 -15 -1 -15 -14 0 -11 -5 -20 -11 -20 -5 0 -7 6 -4 13
4 6 -2 2 -13 -10 -11 -12 -23 -19 -26 -15 -4 3 -4 -2 0 -11 5 -13 1 -20 -15
-24 -11 -3 -21 -12 -21 -19 0 -8 -5 -14 -11 -14 -5 0 -7 5 -3 12 4 7 3 8 -5 4
-9 -6 -9 -11 0 -22 9 -11 8 -14 -3 -14 -10 0 -15 -9 -14 -22 0 -13 -5 -23 -11
-23 -7 0 -12 -4 -10 -10 1 -5 6 -9 10 -7 5 1 5 -2 2 -8 -4 -6 -14 -9 -22 -6
-8 3 -11 1 -8 -4 10 -16 14 -50 7 -49 -21 3 -24 -3 -6 -16 10 -9 13 -14 5 -13
-7 2 -16 -3 -18 -9 -3 -8 3 -13 14 -14 16 0 16 -1 -2 -9 -13 -6 -15 -9 -5 -9
13 -1 13 -2 0 -11 -8 -5 -10 -10 -5 -10 6 0 11 -10 12 -21 2 -21 1 -21 -13 -3
-15 18 -15 18 -6 -1 5 -11 8 -28 7 -37 -2 -10 1 -18 7 -18 6 0 4 -7 -3 -17 -8
-9 -9 -14 -3 -10 7 4 15 0 18 -9 3 -8 2 -12 -3 -9 -5 3 -12 1 -16 -5 -3 -5 1
-10 9 -10 9 0 16 -5 16 -11 0 -5 -6 -7 -12 -3 -10 6 -10 5 -1 -8 7 -8 10 -18
6 -21 -3 -4 0 -13 7 -22 9 -11 9 -15 1 -15 -8 0 -5 -7 5 -17 16 -17 16 -18 1
-21 -15 -3 -14 -6 5 -24 17 -15 19 -18 6 -14 -22 7 -23 2 -3 -17 13 -13 13
-19 1 -42 -9 -17 -16 -22 -19 -13 -3 8 -6 6 -6 -6 -1 -12 -6 -16 -15 -13 -11
4 -13 1 -9 -11 6 -15 5 -15 -10 -4 -14 12 -16 11 -12 -6 3 -15 -2 -19 -21 -16
-15 1 -22 -2 -17 -9 4 -6 0 -8 -10 -4 -11 4 -17 1 -17 -8 0 -8 -3 -14 -7 -14
-5 1 -17 1 -28 0 -17 -1 -18 -3 -5 -11 12 -8 9 -10 -13 -10 -15 0 -30 -7 -33
-15 -4 -8 -10 -15 -16 -15 -5 0 -6 5 -2 12 4 7 3 8 -5 4 -6 -4 -8 -12 -5 -18
5 -8 1 -9 -12 -5 -18 7 -18 6 1 -9 15 -13 16 -15 3 -11 -9 3 -22 -1 -28 -8 -7
-8 -16 -13 -20 -10 -4 3 -11 -2 -14 -11 -3 -9 -13 -14 -21 -10 -8 3 -17 0 -21
-6 -5 -7 -2 -8 7 -4 8 4 6 1 -3 -7 -10 -8 -15 -17 -11 -20 3 -4 -4 -5 -15 -2
-15 3 -19 0 -15 -11 3 -8 2 -14 -3 -13 -28 5 -36 -1 -24 -16 11 -13 10 -14 -5
-9 -13 5 -16 4 -11 -4 5 -8 1 -10 -10 -5 -12 4 -15 3 -10 -5 4 -7 2 -12 -3
-12 -6 0 -10 -5 -8 -12 1 -6 -11 -18 -26 -26 -18 -9 -26 -19 -23 -28 4 -9 -4
-18 -19 -24 -14 -5 -25 -17 -25 -25 0 -10 -5 -13 -12 -9 -8 5 -7 0 2 -11 12
-15 12 -17 1 -10 -11 6 -13 4 -8 -8 4 -11 1 -15 -12 -12 -15 3 -18 -1 -13 -17
4 -17 2 -20 -13 -14 -14 5 -15 4 -7 -7 6 -7 7 -18 2 -26 -4 -8 -7 -19 -6 -25
2 -6 1 -8 -1 -3 -3 4 -9 4 -14 1 -6 -4 -6 -11 1 -19 8 -10 8 -15 -1 -21 -8 -5
-10 -3 -4 7 7 12 6 12 -6 0 -11 -10 -11 -15 -2 -18 10 -4 10 -7 0 -18 -7 -7
-16 -10 -21 -7 -5 3 -6 0 -2 -7 4 -6 12 -9 17 -6 5 4 9 2 9 -3 0 -6 -7 -12
-15 -16 -17 -6 -20 -26 -4 -26 5 0 7 4 4 10 -4 6 1 7 11 3 14 -5 13 -8 -7 -19
-13 -7 -18 -13 -10 -14 11 0 11 -3 0 -17 -11 -13 -11 -17 -1 -20 6 -3 9 -10 5
-16 -8 -14 -10 -67 -1 -67 3 0 9 6 12 13 3 6 3 2 0 -11 -3 -13 0 -30 7 -38 10
-13 10 -17 -2 -25 -10 -6 -10 -9 -1 -9 6 0 12 -7 12 -16 0 -9 -5 -12 -12 -8
-7 4 -8 3 -4 -4 4 -6 13 -9 20 -6 10 4 13 -3 11 -26 -1 -16 2 -33 8 -37 6 -4
7 -1 2 7 -5 9 -4 11 4 6 9 -6 9 -11 0 -22 -10 -12 -9 -13 5 -8 12 4 15 2 10
-9 -7 -19 23 -80 36 -72 5 3 12 0 16 -6 5 -8 3 -9 -6 -4 -8 5 -11 3 -8 -6 3
-8 11 -13 17 -11 7 1 10 -2 6 -8 -4 -6 -1 -17 5 -25 6 -8 8 -20 4 -27 -6 -11
-5 -11 8 0 13 10 17 10 22 -4 3 -9 4 -20 1 -24 -3 -5 4 -11 15 -15 11 -3 20
-14 21 -23 0 -13 2 -13 6 -3 4 9 10 3 19 -18 7 -17 25 -36 39 -41 14 -6 23
-14 20 -20 -4 -6 1 -7 11 -3 12 4 15 3 10 -5 -4 -7 -1 -12 9 -12 9 0 13 -4 10
-10 -3 -5 0 -10 7 -10 7 0 23 -11 36 -25 13 -13 29 -23 35 -22 6 1 11 -3 12
-10 0 -6 4 -15 9 -20 5 -5 6 -3 2 5 -12 21 13 13 26 -8 7 -11 19 -20 26 -20 8
0 10 -5 6 -12 -5 -8 -2 -8 10 1 15 12 17 12 14 0 -2 -9 4 -13 16 -11 13 3 17
-1 13 -12 -4 -11 -1 -13 10 -9 10 4 14 2 10 -4 -4 -6 3 -9 19 -7 22 2 24 0 12
-14 -7 -9 -8 -14 -4 -10 5 4 16 2 24 -5 13 -10 14 -9 7 3 -8 13 -6 13 8 1 9
-7 23 -11 31 -8 10 4 12 0 8 -16 -5 -20 -4 -20 11 -8 14 11 18 11 23 -2 3 -9
12 -13 19 -11 7 3 16 1 20 -5 3 -6 17 -11 30 -11 12 0 26 -7 29 -16 3 -8 10
-12 16 -9 5 3 10 2 10 -3 0 -10 50 -35 57 -28 2 2 -5 7 -16 11 -12 3 -21 10
-21 15 0 5 13 2 29 -8 16 -9 28 -20 25 -23 -2 -4 5 -5 16 -2 15 4 20 0 21 -13
0 -18 1 -18 9 1 l9 20 0 -20 c1 -15 3 -17 10 -6 6 10 10 10 16 1 4 -6 14 -9
22 -6 11 5 13 1 8 -17 -3 -12 -3 -17 2 -12 10 12 73 15 73 3 0 -5 4 -6 10 -3
5 3 10 0 10 -7 0 -9 3 -9 10 2 8 13 10 12 10 -3 0 -10 4 -16 9 -13 5 4 12 0
14 -6 3 -7 6 -4 6 7 1 17 3 18 11 5 9 -13 11 -13 20 0 9 13 10 12 8 -4 -2 -10
3 -21 11 -24 8 -3 11 0 7 7 -10 16 3 13 21 -5 13 -13 17 -13 24 -2 6 10 9 8
10 -7 0 -11 3 -14 6 -7 2 6 11 12 19 12 9 0 12 -5 8 -12 -4 -7 -4 -10 1 -6 4
4 14 3 22 -4 11 -9 12 -7 7 7 -6 15 -4 16 14 6 12 -7 22 -14 22 -17 0 -3 -5
-2 -12 2 -7 4 -8 3 -4 -5 6 -9 11 -9 21 -1 9 8 15 8 20 0 4 -7 12 -7 25 0 15
8 22 5 34 -12 13 -18 16 -19 16 -6 0 9 5 20 10 23 6 4 10 3 9 -2 -3 -20 2 -29
20 -29 11 0 17 5 13 11 -3 5 2 4 11 -4 10 -8 20 -11 24 -8 3 4 15 2 26 -4 14
-8 18 -8 13 0 -4 6 -2 11 3 11 6 0 11 -6 11 -12 0 -10 2 -10 8 -1 5 7 13 9 21
3 8 -4 21 -6 29 -2 10 3 13 1 8 -6 -4 -7 -2 -12 3 -12 6 0 11 5 11 10 0 6 5
10 11 10 5 0 7 -6 3 -12 -6 -10 -5 -10 7 -1 11 9 18 10 27 1 13 -13 46 -3 37
12 -10 16 1 11 16 -7 12 -14 12 -16 0 -8 -9 5 -12 4 -7 -3 3 -5 20 -8 37 -5
24 3 29 1 24 -9 -3 -7 3 -2 16 12 19 22 21 22 15 5 -5 -16 -1 -21 14 -22 11
-1 20 3 20 8 0 6 -5 7 -12 3 -7 -5 -8 -3 -4 5 6 9 13 8 29 -6 11 -10 17 -12
13 -5 -4 6 -2 12 3 12 6 0 11 -4 11 -9 0 -5 7 -11 14 -14 10 -4 13 -1 10 8 -4
10 0 13 17 10 13 -3 28 2 36 13 8 9 12 11 8 5 -8 -17 4 -35 18 -26 20 13 58
13 51 0 -4 -7 -4 -9 1 -5 4 4 14 3 22 -4 10 -8 12 -8 8 4 -5 11 2 14 30 14 19
-1 35 -5 35 -10 0 -5 7 -3 15 4 12 10 18 10 32 -1 14 -12 16 -12 9 0 -6 9 -5
12 5 9 8 -3 23 -1 34 5 18 9 19 9 6 -7 -12 -14 -12 -16 3 -10 9 3 16 14 17 23
0 12 2 12 9 -4 5 -11 9 -14 9 -6 1 11 4 11 18 0 14 -12 16 -12 11 2 -4 10 -1
16 8 16 9 0 13 -6 9 -16 -5 -13 -4 -14 6 -3 15 14 33 16 24 2 -3 -5 -1 -10 4
-10 6 0 11 7 11 15 0 8 5 15 11 15 5 0 8 -4 5 -8 -2 -4 6 -8 19 -8 13 0 21 4
18 10 -4 5 3 7 15 4 13 -4 22 -1 23 5 0 7 4 3 9 -8 8 -19 9 -19 9 -1 1 15 4
16 15 7 11 -9 15 -9 18 1 4 10 9 10 23 -2 10 -8 16 -10 12 -3 -5 8 0 12 15 11
37 -1 50 1 44 10 -2 4 4 8 14 8 14 0 16 -3 8 -13 -8 -10 -7 -12 6 -7 9 3 16
11 16 16 0 6 8 4 17 -3 9 -8 14 -9 10 -3 -4 7 2 14 13 17 11 3 18 2 15 -3 -2
-4 8 -5 23 -3 15 3 35 5 44 6 9 1 14 5 12 9 -3 4 0 8 6 8 6 0 8 5 4 12 -4 7
-3 8 5 4 6 -4 9 -11 6 -16 -6 -10 15 -8 33 3 6 5 17 5 24 1 8 -5 9 -1 4 12 -6
15 -5 17 5 7 19 -19 32 -16 25 5 -6 16 -5 16 8 -1 11 -14 15 -15 19 -4 4 10
16 13 36 11 22 -3 38 3 53 18 14 14 19 16 15 6 -8 -23 19 -30 35 -10 12 15 11
16 -4 3 -10 -7 -18 -9 -18 -3 0 14 24 22 40 12 7 -5 20 0 32 12 11 11 23 16
27 12 11 -15 31 -15 37 0 3 9 12 12 21 9 12 -5 14 -3 8 8 -8 12 -6 12 8 0 15
-12 17 -11 17 5 0 16 2 17 10 4 5 -8 10 -10 10 -4 0 7 7 15 16 18 10 4 13 2 8
-7 -4 -6 4 -3 17 9 13 11 33 20 44 20 11 -1 26 6 33 14 10 11 12 12 6 1 -5
-11 -3 -13 10 -8 10 4 21 7 24 7 4 0 0 5 -8 11 -12 9 -11 10 8 6 12 -3 22 0
22 5 0 6 6 5 15 -2 13 -11 14 -10 9 4 -5 14 -2 16 20 12 15 -3 24 -1 21 5 -4
5 -11 6 -17 3 -7 -4 -8 -2 -4 5 4 6 12 9 17 6 5 -4 9 -2 9 4 0 6 7 8 15 5 10
-4 15 0 15 11 0 9 4 14 9 10 13 -7 62 16 55 26 -3 5 2 6 11 3 8 -4 21 -1 29 5
7 6 16 8 20 4 4 -4 4 0 0 10 -6 16 10 23 40 18 5 -1 3 6 -4 16 -8 10 -10 15
-6 11 5 -4 16 -2 24 5 13 10 15 9 8 -3 -4 -9 -2 -8 7 2 8 10 18 14 22 10 5 -4
5 1 2 11 -6 15 -4 16 14 6 19 -10 20 -9 10 10 -10 17 -9 20 4 15 9 -4 25 4 39
19 16 17 27 22 34 15 7 -7 10 -4 9 8 -1 12 3 18 13 16 8 -2 12 0 8 4 -4 4 0
13 10 21 9 8 11 11 3 7 -10 -5 -12 -3 -7 5 5 7 10 10 13 7 3 -3 14 6 25 19 11
14 25 22 31 18 6 -4 8 0 4 10 -5 12 1 19 18 23 13 3 23 11 22 18 -1 6 4 10 12
8 12 -3 12 -1 0 14 -9 11 -9 15 -2 10 7 -4 21 -2 30 3 10 6 13 11 6 11 -7 0
-10 7 -7 15 3 8 11 13 17 12 7 -1 11 8 11 20 -1 15 3 20 14 16 10 -4 13 -1 10
8 -3 8 2 20 11 27 9 8 10 11 4 7 -9 -4 -11 -1 -7 9 3 9 11 13 17 9 6 -3 7 -1
3 6 -4 7 2 20 16 32 13 11 17 18 11 14 -8 -4 -13 0 -13 10 0 9 4 14 9 10 5 -3
13 0 17 6 4 7 3 9 -3 6 -6 -4 -13 -1 -16 7 -6 16 1 26 17 26 6 0 4 -5 -4 -11
-13 -9 -13 -10 0 -6 9 2 14 13 12 25 -2 11 2 23 8 27 8 5 8 11 -1 21 -9 11 -9
14 0 14 9 0 9 5 1 20 -8 15 -8 20 1 20 9 0 9 3 0 14 -8 10 -9 16 -1 21 6 3 7
12 3 18 -13 20 -12 39 1 34 7 -3 13 1 13 9 0 8 -5 13 -11 11 -7 -3 -11 11 -10
39 1 35 -2 45 -18 50 -16 5 -17 8 -7 14 10 7 10 12 -2 26 -12 16 -12 17 1 9 8
-4 4 4 -9 18 -17 19 -20 27 -10 27 12 0 12 2 -1 10 -12 7 -12 12 -2 22 9 9 12
9 12 -2 0 -7 3 -10 6 -7 4 4 1 13 -5 21 -9 11 -9 16 0 22 8 4 9 3 5 -4 -4 -7
-5 -12 -2 -12 12 0 55 76 59 103 2 16 10 33 18 38 8 5 10 9 5 9 -6 0 -1 7 10
15 14 11 15 14 2 9 -17 -6 -20 18 -3 33 4 4 5 2 1 -4 -4 -8 -2 -13 6 -13 9 0
13 10 12 30 -1 17 2 30 7 30 5 0 9 5 9 11 0 5 -3 8 -8 6 -4 -3 -7 7 -7 23 -1
20 3 26 14 22 9 -3 12 -1 7 6 -4 8 0 12 11 12 17 1 17 1 1 11 -10 5 -18 15
-18 20 0 6 3 8 8 6 10 -7 7 51 -3 61 -5 4 -5 1 -1 -5 4 -7 2 -13 -3 -13 -17 0
-13 18 7 29 16 10 16 10 -2 11 -20 0 -20 0 0 14 18 14 18 15 2 21 -10 4 -15
11 -12 16 3 5 -1 9 -8 9 -9 0 -9 3 2 10 10 6 11 10 3 10 -7 0 -13 5 -13 11 0
5 6 7 13 4 6 -4 4 0 -6 8 -14 11 -15 16 -5 20 10 4 10 6 -1 6 -9 1 -10 5 -5
14 5 7 2 5 -7 -5 -16 -17 -17 -15 -14 22 2 36 1 39 -14 28 -9 -7 -13 -8 -9 -4
4 5 0 15 -10 23 -9 8 -12 12 -6 9 6 -3 11 1 11 9 0 8 -4 12 -9 9 -13 -8 -50
27 -44 43 3 7 0 15 -6 19 -7 4 -8 3 -4 -4 4 -7 2 -12 -3 -12 -6 0 -11 7 -11
16 0 11 -5 14 -17 10 -10 -4 -14 -4 -10 0 11 11 -33 43 -50 37 -9 -4 -14 -2
-11 3 3 5 -1 16 -10 24 -14 13 -15 12 -9 -2 4 -12 2 -15 -9 -11 -7 3 -14 9
-14 15 0 5 -4 7 -9 4 -4 -3 -23 -1 -40 4 -29 8 -31 7 -19 -7 12 -15 11 -15 -9
-3 -12 8 -19 18 -17 22 3 4 0 8 -5 8 -6 0 -11 -10 -11 -22 0 -18 -2 -20 -10
-8 -5 8 -12 11 -16 8 -4 -4 -16 -2 -28 4 -18 10 -19 9 -9 -4 11 -13 8 -15 -17
-13 -17 1 -30 -3 -30 -8 0 -5 -7 -4 -15 3 -13 11 -14 10 -10 -2 4 -11 -2 -14
-24 -12 -17 1 -30 -1 -29 -5 2 -19 -4 -24 -13 -11 -9 12 -10 10 -6 -8 4 -17 2
-21 -7 -13 -7 6 -17 6 -26 1 -8 -5 -18 -6 -22 -4 -5 3 -7 1 -6 -4 2 -6 -1 -10
-6 -10 -5 0 -13 -6 -17 -14 -6 -10 -9 -8 -9 7 0 17 -2 18 -11 5 -9 -12 -10
-10 -6 8 5 19 3 21 -9 11 -9 -7 -14 -8 -14 -1 0 6 5 14 11 17 6 5 5 11 -5 18
-12 9 -13 16 -5 27 9 13 10 12 5 -2 -3 -10 -2 -18 3 -18 5 0 11 11 13 24 4 19
1 23 -11 19 -13 -5 -14 -3 -3 8 6 7 12 17 12 22 0 4 -6 5 -12 1 -10 -6 -10 -4
0 7 6 7 12 17 12 22 0 4 -6 5 -12 1 -7 -4 -5 2 5 13 12 14 15 23 7 28 -5 3 -7
12 -3 18 4 7 0 7 -10 -1 -14 -12 -15 -11 -8 15 9 34 4 53 -14 53 -8 0 -12 8
-10 20 2 11 -1 20 -7 20 -5 0 -8 7 -5 14 4 10 1 13 -8 10 -10 -4 -12 5 -10 38
5 77 32 223 47 253 13 26 59 75 70 75 5 0 20 8 35 17 14 10 31 18 37 20 74 15
149 33 153 36 2 3 -13 5 -34 4 -41 -1 -135 10 -168 19 -72 20 -110 61 -121
129 -3 21 -8 47 -10 59 -8 40 -12 71 -19 138 -7 75 -20 97 -22 40z m-1253
-418 c0 -8 -19 -13 -24 -6 -3 5 1 9 9 9 8 0 15 -2 15 -3z m64 -2 c3 -5 -1 -9
-9 -9 -8 0 -12 4 -9 9 3 4 7 8 9 8 2 0 6 -4 9 -8z m1634 -854 c-2 -9 9 -13 30
-12 21 0 32 -5 32 -14 0 -11 3 -12 13 -3 10 8 19 6 34 -9 12 -10 24 -16 27
-13 3 4 6 1 6 -6 0 -7 5 -9 10 -6 6 3 10 1 10 -5 0 -6 4 -8 10 -5 6 4 7 -1 3
-12 -6 -16 -5 -17 13 -3 10 8 16 10 12 6 -4 -5 0 -15 10 -23 9 -8 11 -12 5 -8
-17 8 -16 -3 1 -20 7 -8 17 -11 22 -7 5 4 2 -1 -5 -11 -12 -15 -12 -17 5 -11
10 4 16 4 12 -1 -4 -4 -2 -15 5 -23 9 -13 9 -14 0 -8 -19 11 -16 -15 4 -29 13
-9 13 -14 3 -20 -9 -6 -11 -4 -5 6 5 8 4 10 0 6 -14 -12 -15 -38 -2 -30 9 5 8
2 0 -8 -7 -8 -9 -26 -6 -39 4 -14 2 -21 -4 -17 -5 3 -10 0 -10 -7 0 -8 7 -12
16 -9 13 4 13 3 2 -5 -8 -6 -10 -15 -5 -23 6 -12 5 -12 -8 -1 -14 11 -16 10
-11 -7 3 -13 1 -21 -6 -21 -7 0 -9 5 -5 12 4 7 3 8 -4 4 -15 -9 -3 -38 12 -29
6 3 7 2 3 -3 -5 -5 -14 -9 -20 -9 -7 -1 -11 -7 -9 -14 2 -8 -4 -21 -13 -31 -8
-9 -12 -20 -8 -24 4 -4 -1 -4 -11 0 -14 5 -17 4 -12 -4 4 -7 2 -12 -4 -12 -6
0 -8 -5 -4 -12 4 -7 3 -8 -4 -4 -6 4 -21 2 -33 -5 -13 -6 -19 -7 -15 -1 3 6 0
17 -8 25 -8 8 -12 17 -9 21 4 3 -8 12 -25 18 -18 7 -32 18 -32 26 0 7 -4 10
-10 7 -5 -3 -10 1 -10 10 0 11 -5 15 -16 11 -8 -3 -12 -2 -9 4 3 6 1 10 -4 10
-6 0 -11 5 -11 11 0 5 5 7 12 3 6 -4 8 -3 4 4 -3 6 -15 9 -26 7 -12 -2 -19 -1
-16 3 5 9 -20 32 -28 25 -3 -4 -6 -1 -6 6 0 7 -5 9 -10 6 -6 -4 -10 -3 -9 2 1
4 1 15 0 23 -1 13 -2 13 -11 0 -8 -12 -10 -12 -10 5 0 17 -2 17 -10 5 -8 -13
-10 -12 -10 4 0 13 -5 17 -19 13 -14 -3 -18 -1 -14 9 5 13 -7 18 -36 15 -7 -2
-10 2 -6 8 3 7 -2 11 -14 11 -12 0 -21 5 -21 10 0 6 -5 10 -11 10 -5 0 -7 -5
-3 -12 4 -7 3 -8 -4 -4 -16 9 -15 33 0 38 7 3 5 7 -6 11 -11 5 -15 3 -10 -5 4
-6 3 -8 -3 -5 -7 4 -7 18 1 41 6 19 14 32 18 30 7 -5 12 10 10 28 -1 3 5 12
14 18 12 11 13 10 8 -6 -5 -18 -5 -18 6 -1 6 9 9 21 6 25 -3 4 9 7 25 6 22 -1
27 1 20 9 -6 9 -2 12 16 14 19 1 22 -1 12 -8 -10 -6 -11 -9 -1 -9 7 0 15 6 18
14 3 9 25 13 70 13 35 0 68 4 72 8 4 5 0 4 -8 0 -13 -8 -13 -7 -1 8 16 20 22
22 19 5z m72 -483 c0 -12 -19 -12 -23 0 -4 9 -1 12 9 8 7 -3 14 -7 14 -8z
m211 -102 c-12 -20 -14 -14 -5 12 4 9 9 14 11 11 3 -2 0 -13 -6 -23z m-3967
-889 c3 -8 2 -12 -4 -9 -6 3 -10 10 -10 16 0 14 7 11 14 -7z m2361 -514 c3 -5
1 -10 -4 -10 -6 0 -11 5 -11 10 0 6 2 10 4 10 3 0 8 -4 11 -10z"/>
<path d="M2136 4113 c-6 -14 -5 -15 5 -6 7 7 10 15 7 18 -3 3 -9 -2 -12 -12z"/>
<path d="M2391 4114 c7 -8 6 -14 -3 -18 -7 -3 -3 -3 9 0 19 4 21 2 17 -21 -3
-17 -1 -24 6 -20 13 8 7 48 -8 53 -7 2 -10 7 -8 11 3 4 -1 8 -9 8 -11 0 -12
-4 -4 -13z"/>
<path d="M2550 4122 c0 -6 5 -12 12 -14 13 -5 2 -28 -13 -28 -6 0 -8 4 -4 9 6
11 -33 36 -43 27 -3 -3 0 -6 7 -6 7 0 9 -4 6 -10 -3 -6 1 -7 10 -4 10 4 15 2
13 -7 -3 -15 48 -23 57 -8 3 5 -1 6 -10 3 -10 -4 -14 -2 -10 8 3 8 -1 21 -10
28 -9 7 -15 8 -15 2z"/>
<path d="M2765 4119 c-3 -4 2 -6 10 -5 21 3 28 13 10 13 -9 0 -18 -4 -20 -8z"/>
<path d="M2095 4111 c-3 -5 -2 -12 3 -15 5 -3 9 1 9 9 0 17 -3 19 -12 6z"/>
<path d="M2160 4094 c-11 -12 -10 -18 5 -32 16 -16 17 -16 7 4 -8 15 -8 24 0
32 7 7 9 12 6 12 -3 0 -11 -7 -18 -16z"/>
<path d="M2195 4100 c-3 -5 -1 -10 4 -10 6 0 11 5 11 10 0 6 -2 10 -4 10 -3 0
-8 -4 -11 -10z"/>
<path d="M2477 4095 c-4 -9 -13 -12 -24 -8 -23 8 -15 -1 14 -16 20 -10 22 -9
17 6 -5 16 -4 16 10 -1 19 -24 21 -8 2 17 -12 15 -14 15 -19 2z"/>
<path d="M2191 4050 c-31 -26 -17 -26 16 0 14 11 22 20 17 20 -5 -1 -20 -10
-33 -20z"/>
<path d="M2447 4052 c3 -9 10 -23 16 -29 6 -9 6 -13 -2 -13 -6 0 -16 10 -20
23 -8 19 -9 18 -9 -11 1 -26 5 -31 18 -27 12 4 17 -1 18 -22 1 -36 5 -55 16
-72 7 -10 3 -12 -14 -6 -20 6 -21 5 -9 -8 8 -8 18 -12 23 -9 5 3 7 -2 3 -11
-4 -12 -2 -15 11 -11 10 4 6 -4 -11 -20 -20 -18 -23 -26 -13 -26 9 0 16 -4 16
-10 0 -5 5 -10 11 -10 8 0 7 5 -2 16 -12 14 -9 20 16 42 17 14 22 23 13 19 -9
-3 -22 1 -29 9 -11 13 -10 15 2 14 35 -5 43 0 23 16 -18 14 -18 15 6 9 24 -6
24 -5 -3 10 -15 9 -32 13 -37 10 -6 -3 -10 -2 -10 4 0 5 6 12 13 15 9 3 7 8
-5 19 -15 12 -15 15 11 30 20 12 29 25 29 43 0 17 -3 22 -8 13 -5 -6 -6 -19
-3 -28 3 -12 1 -11 -11 3 -13 17 -18 17 -33 5 -15 -12 -16 -12 -11 3 4 9 1 19
-7 22 -10 3 -12 0 -8 -12z m49 -41 c-4 -6 -13 -11 -19 -11 -7 0 -6 4 3 10 11
7 11 10 2 10 -7 0 -10 5 -6 11 4 7 10 7 16 1 6 -6 7 -15 4 -21z m11 -88 c-4
-3 -1 -13 6 -21 10 -13 9 -14 -11 -3 -22 12 -22 31 0 31 6 0 8 -3 5 -7z"/>
<path d="M2713 4050 c-1 -11 2 -22 6 -24 4 -3 7 4 6 14 -2 27 -10 33 -12 10z"/>
<path d="M2235 4049 c-4 -6 -5 -12 -2 -15 2 -3 7 2 10 11 7 17 1 20 -8 4z"/>
<path d="M2553 4052 c-7 -5 -3 -11 13 -19 23 -11 24 -10 13 5 -8 9 -14 18 -14
19 0 1 -6 -1 -12 -5z"/>
<path d="M2590 4049 c0 -5 5 -7 10 -4 6 3 10 8 10 11 0 2 -4 4 -10 4 -5 0 -10
-5 -10 -11z"/>
<path d="M2376 4039 c3 -5 10 -6 16 -3 7 5 9 2 6 -8 -4 -8 0 -15 8 -15 19 0 1
30 -20 33 -9 1 -14 -2 -10 -7z"/>
<path d="M2290 4020 c0 -5 5 -10 11 -10 5 0 7 5 4 10 -3 6 -8 10 -11 10 -2 0
-4 -4 -4 -10z"/>
<path d="M2668 4023 c7 -3 16 -2 19 1 4 3 -2 6 -13 5 -11 0 -14 -3 -6 -6z"/>
<path d="M2175 4009 c-4 -6 -5 -12 -2 -15 2 -3 7 2 10 11 7 17 1 20 -8 4z"/>
<path d="M2222 4000 c0 -14 2 -19 5 -12 2 6 2 18 0 25 -3 6 -5 1 -5 -13z"/>
<path d="M2530 4005 c0 -7 30 -13 34 -7 3 4 -4 9 -15 9 -10 1 -19 0 -19 -2z"/>
<path d="M2191 3987 c-8 -10 -7 -14 2 -14 8 0 14 6 14 14 0 7 -1 13 -2 13 -2
0 -8 -6 -14 -13z"/>
<path d="M2507 3994 c-9 -10 4 -40 23 -52 15 -9 21 -8 32 6 12 15 11 16 -4 4
-10 -8 -19 -9 -22 -3 -3 5 -3 11 1 14 5 2 2 2 -4 1 -16 -4 -17 13 -1 18 8 3 6
6 -4 10 -9 4 -18 4 -21 2z"/>
<path d="M2315 3981 c-3 -5 -2 -12 3 -15 5 -3 9 1 9 9 0 17 -3 19 -12 6z"/>
<path d="M2401 3976 c-8 -10 -9 -16 -1 -21 6 -4 9 -1 8 7 -2 7 3 12 10 10 8
-1 11 2 7 8 -8 13 -10 13 -24 -4z"/>
<path d="M2235 3969 c-4 -6 -5 -12 -2 -15 2 -3 7 2 10 11 7 17 1 20 -8 4z"/>
<path d="M2256 3955 c-3 -8 0 -17 6 -21 6 -4 8 -3 4 4 -3 5 -1 12 6 14 8 3 9
6 1 11 -6 4 -13 0 -17 -8z"/>
<path d="M2217 3933 c6 -16 5 -17 -12 -3 -12 10 -16 10 -11 2 4 -7 2 -20 -6
-29 -11 -14 -8 -13 15 1 28 19 33 31 17 41 -6 4 -7 -1 -3 -12z"/>
<path d="M2447 3934 c5 -13 3 -15 -7 -9 -9 5 -11 4 -6 -3 4 -7 11 -12 17 -12
12 0 12 27 -1 35 -6 4 -7 -1 -3 -11z"/>
<path d="M2570 3919 c0 -5 5 -7 10 -4 6 3 10 8 10 11 0 2 -4 4 -10 4 -5 0 -10
-5 -10 -11z"/>
<path d="M2230 3905 c0 -5 5 -17 10 -25 5 -8 10 -10 10 -5 0 6 -5 17 -10 25
-5 8 -10 11 -10 5z"/>
<path d="M2410 3899 c0 -5 5 -7 10 -4 6 3 10 8 10 11 0 2 -4 4 -10 4 -5 0 -10
-5 -10 -11z"/>
<path d="M2155 3891 c-3 -5 -2 -12 3 -15 5 -3 9 1 9 9 0 17 -3 19 -12 6z"/>
<path d="M2200 3886 c0 -2 7 -9 15 -16 13 -11 14 -10 9 4 -5 14 -24 23 -24 12z"/>
<path d="M2430 3880 c0 -6 7 -10 15 -10 8 0 15 2 15 4 0 2 -7 6 -15 10 -8 3
-15 1 -15 -4z"/>
<path d="M2575 3869 c-4 -6 -5 -12 -2 -15 2 -3 7 2 10 11 7 17 1 20 -8 4z"/>
<path d="M2410 3861 c0 -6 4 -13 10 -16 6 -3 7 1 4 9 -7 18 -14 21 -14 7z"/>
<path d="M2190 3856 c0 -3 9 -10 20 -16 11 -6 20 -8 20 -6 0 3 -9 10 -20 16
-11 6 -20 8 -20 6z"/>
<path d="M2453 3845 c0 -8 4 -15 9 -15 4 0 8 7 8 15 0 8 -4 15 -8 15 -5 0 -9
-7 -9 -15z"/>
<path d="M2135 3841 c-3 -5 -2 -12 3 -15 5 -3 9 1 9 9 0 17 -3 19 -12 6z"/>
<path d="M2520 3835 c-10 -12 -10 -18 0 -30 7 -8 18 -15 24 -15 6 0 3 5 -6 11
-10 5 -18 15 -18 21 0 7 4 7 14 -1 10 -9 17 -7 27 6 13 16 12 17 -3 5 -10 -8
-19 -9 -22 -3 -3 5 0 12 6 14 8 4 9 6 2 6 -6 1 -17 -6 -24 -14z"/>
<path d="M2186 3822 c-3 -5 1 -9 9 -9 8 0 12 4 9 9 -3 4 -7 8 -9 8 -2 0 -6 -4
-9 -8z"/>
<path d="M2141 3798 c-1 -11 -8 -15 -23 -12 -21 4 -21 4 -3 -5 23 -10 40 1 32
21 -4 9 -6 8 -6 -4z"/>
<path d="M2570 3780 c0 -5 5 -10 11 -10 5 0 7 5 4 10 -3 6 -8 10 -11 10 -2 0
-4 -4 -4 -10z"/>
<path d="M2508 3773 c6 -2 18 -2 25 0 6 3 1 5 -13 5 -14 0 -19 -2 -12 -5z"/>
<path d="M2473 3755 c0 -8 4 -12 9 -9 4 3 8 9 8 15 0 5 -4 9 -8 9 -5 0 -9 -7
-9 -15z"/>
<path d="M2550 3750 c-12 -8 -12 -10 -1 -10 11 0 11 -3 0 -17 -11 -15 -11 -16
1 -6 8 7 15 20 16 28 3 18 3 17 -16 5z"/>
<path d="M2140 3740 c-12 -7 -10 -9 8 -7 12 0 22 5 22 9 0 11 -12 10 -30 -2z"/>
<path d="M2519 3748 c-5 -18 -6 -38 -1 -34 7 8 12 36 6 36 -2 0 -4 -1 -5 -2z"/>
<path d="M2576 3722 c-3 -5 1 -9 9 -9 8 0 12 4 9 9 -3 4 -7 8 -9 8 -2 0 -6 -4
-9 -8z"/>
<path d="M1960 3649 c0 -5 5 -7 10 -4 6 3 10 8 10 11 0 2 -4 4 -10 4 -5 0 -10
-5 -10 -11z"/>
<path d="M4580 2896 c0 -2 7 -9 15 -16 9 -7 15 -8 15 -2 0 5 -7 12 -15 16 -8
3 -15 4 -15 2z"/>
<path d="M564 2332 c3 -5 0 -13 -6 -15 -9 -4 -10 -6 -1 -6 17 -1 25 16 12 25
-7 4 -9 3 -5 -4z"/>
<path d="M4365 1370 c-3 -6 1 -7 9 -4 18 7 21 14 7 14 -6 0 -13 -4 -16 -10z"/>
<path d="M1155 1010 c3 -5 8 -10 11 -10 2 0 4 5 4 10 0 6 -5 10 -11 10 -5 0
-7 -4 -4 -10z"/>
<path d="M3745 990 c-3 -5 -1 -10 4 -10 6 0 11 5 11 10 0 6 -2 10 -4 10 -3 0
-8 -4 -11 -10z"/>
</g>
</svg>
